<svg width="48" height="48" fill="none" xmlns="http://www.w3.org/2000/svg"><circle cx="24" cy="24" r="23.5" stroke="#fff"/><path d="M14.44 30h2.24v-4.72h3.568v-1.776H16.68V20.64h4.656v-1.808H14.44V30Zm10.724-7.568V18.16h-2.24V30h2.24v-1.264c.544.768 1.536 1.408 2.928 1.408 2.272 0 4.048-1.84 4.048-4.608s-1.776-4.544-4.048-4.544c-1.344 0-2.384.624-2.928 1.44Zm4.688 3.104c0 1.68-1.136 2.64-2.352 2.64-1.2 0-2.336-.928-2.336-2.608 0-1.68 1.136-2.608 2.336-2.608 1.216 0 2.352.896 2.352 2.576Z" fill="#fff"/></svg>