<svg width="48" height="48" fill="none" xmlns="http://www.w3.org/2000/svg"><circle cx="24" cy="24" r="23.5" stroke="#fff"/><path d="M16.456 30h2.24V18.832h-2.24V30Zm3.877-4.464c0 2.768 1.792 4.608 4.048 4.608 1.392 0 2.4-.688 2.928-1.456v1.376c0 1.648-.96 2.352-2.192 2.352-1.12 0-1.952-.528-2.176-1.328h-2.224c.224 2.032 1.968 3.28 4.464 3.28 2.912 0 4.384-1.904 4.384-4.304v-8.928h-2.256V22.4c-.528-.768-1.536-1.408-2.928-1.408-2.256 0-4.048 1.776-4.048 4.544Zm6.976.032c0 1.68-1.12 2.608-2.352 2.608-1.2 0-2.336-.96-2.336-2.64 0-1.68 1.136-2.576 2.336-2.576 1.232 0 2.352.928 2.352 2.608Z" fill="#fff"/></svg>