<svg width="30" height="30" viewBox="0 0 30 30" fill="none" xmlns="http://www.w3.org/2000/svg">
<circle cx="15" cy="15" r="14.5" stroke="white"></circle>
<path d="M12.7109 9.332V11.14H8.05494V14.004H11.6229V15.78H8.05494V20.5H5.81494V9.332H12.7109ZM16.5393 12.932C16.8273 12.5053 17.222 12.1587 17.7233 11.892C18.2353 11.6253 18.8166 11.492 19.4673 11.492C20.2246 11.492 20.9073 11.6787 21.5153 12.052C22.134 12.4253 22.6193 12.9587 22.9713 13.652C23.334 14.3347 23.5153 15.1293 23.5153 16.036C23.5153 16.9427 23.334 17.748 22.9713 18.452C22.6193 19.1453 22.134 19.684 21.5153 20.068C20.9073 20.452 20.2246 20.644 19.4673 20.644C18.806 20.644 18.2246 20.516 17.7233 20.26C17.2326 19.9933 16.838 19.652 16.5393 19.236V20.5H14.2993V8.66H16.5393V12.932ZM21.2273 16.036C21.2273 15.5027 21.1153 15.044 20.8913 14.66C20.678 14.2653 20.39 13.9667 20.0273 13.764C19.6753 13.5613 19.2913 13.46 18.8753 13.46C18.47 13.46 18.086 13.5667 17.7233 13.78C17.3713 13.9827 17.0833 14.2813 16.8593 14.676C16.646 15.0707 16.5393 15.5347 16.5393 16.068C16.5393 16.6013 16.646 17.0653 16.8593 17.46C17.0833 17.8547 17.3713 18.1587 17.7233 18.372C18.086 18.5747 18.47 18.676 18.8753 18.676C19.2913 18.676 19.6753 18.5693 20.0273 18.356C20.39 18.1427 20.678 17.8387 20.8913 17.444C21.1153 17.0493 21.2273 16.58 21.2273 16.036Z" fill="white"></path>
</svg>
