<svg width="30" height="30" fill="none" xmlns="http://www.w3.org/2000/svg"><circle cx="15" cy="15" r="14.5" stroke="#fff"/><path d="M12.71 9.332v1.808H8.056v2.864h3.568v1.776H8.055v4.72h-2.24V9.332h6.896Zm3.83 3.6a3.219 3.219 0 0 1 1.183-1.04c.512-.267 1.094-.4 1.744-.4a3.836 3.836 0 0 1 3.504 2.16c.363.683.544 1.477.544 2.384 0 .907-.181 1.712-.544 2.416-.352.693-.837 1.232-1.456 1.616a3.755 3.755 0 0 1-2.048.576c-.661 0-1.242-.128-1.744-.384a3.467 3.467 0 0 1-1.184-1.024V20.5H14.3V8.66h2.24v4.272Zm4.687 3.104c0-.533-.112-.992-.336-1.376a2.189 2.189 0 0 0-.864-.896 2.268 2.268 0 0 0-1.152-.304c-.405 0-.789.107-1.152.32-.352.203-.64.501-.864.896-.213.395-.32.859-.32 1.392 0 .533.107.997.32 1.392.224.395.512.699.864.912.363.203.747.304 1.152.304.416 0 .8-.107 1.152-.32.363-.213.651-.517.864-.912.224-.395.336-.864.336-1.408Z" fill="#fff"/></svg>