<svg width="30" height="30" viewBox="0 0 30 30" fill="none" xmlns="http://www.w3.org/2000/svg">
<circle cx="15" cy="15" r="14.5" stroke="white"></circle>
<path d="M10.0706 8.66V20.5H7.83056V8.66H10.0706ZM15.7557 11.492C16.417 11.492 16.9984 11.6253 17.4997 11.892C18.001 12.148 18.3957 12.484 18.6837 12.9V11.636H20.9397V20.564C20.9397 21.3853 20.7744 22.116 20.4437 22.756C20.113 23.4067 19.617 23.9187 18.9557 24.292C18.2944 24.676 17.4944 24.868 16.5557 24.868C15.297 24.868 14.2624 24.5747 13.4517 23.988C12.6517 23.4013 12.1984 22.6013 12.0917 21.588H14.3157C14.433 21.9933 14.6837 22.3133 15.0677 22.548C15.4624 22.7933 15.937 22.916 16.4917 22.916C17.1424 22.916 17.6704 22.7187 18.0757 22.324C18.481 21.94 18.6837 21.3533 18.6837 20.564V19.188C18.3957 19.604 17.9957 19.9507 17.4837 20.228C16.9824 20.5053 16.4064 20.644 15.7557 20.644C15.009 20.644 14.3264 20.452 13.7077 20.068C13.089 19.684 12.5984 19.1453 12.2357 18.452C11.8837 17.748 11.7077 16.9427 11.7077 16.036C11.7077 15.14 11.8837 14.3453 12.2357 13.652C12.5984 12.9587 13.0837 12.4253 13.6917 12.052C14.3104 11.6787 14.9984 11.492 15.7557 11.492ZM18.6837 16.068C18.6837 15.524 18.577 15.06 18.3637 14.676C18.1504 14.2813 17.8624 13.9827 17.4997 13.78C17.137 13.5667 16.7477 13.46 16.3317 13.46C15.9157 13.46 15.5317 13.5613 15.1797 13.764C14.8277 13.9667 14.5397 14.2653 14.3157 14.66C14.1024 15.044 13.9957 15.5027 13.9957 16.036C13.9957 16.5693 14.1024 17.0387 14.3157 17.444C14.5397 17.8387 14.8277 18.1427 15.1797 18.356C15.5424 18.5693 15.9264 18.676 16.3317 18.676C16.7477 18.676 17.137 18.5747 17.4997 18.372C17.8624 18.1587 18.1504 17.86 18.3637 17.476C18.577 17.0813 18.6837 16.612 18.6837 16.068Z" fill="white"></path>
</svg>
