<svg width="30" height="30" fill="none" xmlns="http://www.w3.org/2000/svg"><circle cx="15" cy="15" r="14.5" stroke="#fff"/><path d="M10.07 8.66V20.5H7.83V8.66h2.24Zm5.686 2.832c.661 0 1.242.133 1.744.4.501.256.896.592 1.184 1.008v-1.264h2.256v8.928c0 .821-.166 1.552-.496 2.192a3.622 3.622 0 0 1-1.488 1.536c-.662.384-1.462.576-2.4.576-1.259 0-2.294-.293-3.104-.88-.8-.587-1.254-1.387-1.36-2.4h2.224c.117.405.368.725.752.96.394.245.869.368 1.424.368.65 0 1.178-.197 1.584-.592.405-.384.608-.97.608-1.76v-1.376c-.288.416-.688.763-1.2 1.04-.502.277-1.078.416-1.728.416-.747 0-1.43-.192-2.048-.576-.619-.384-1.11-.923-1.472-1.616-.352-.704-.528-1.51-.528-2.416 0-.896.176-1.69.528-2.384.362-.693.848-1.227 1.456-1.6a3.918 3.918 0 0 1 2.064-.56Zm2.928 4.576c0-.544-.107-1.008-.32-1.392a2.189 2.189 0 0 0-.864-.896 2.265 2.265 0 0 0-1.168-.32c-.416 0-.8.101-1.152.304-.352.203-.64.501-.864.896-.214.384-.32.843-.32 1.376 0 .533.106 1.003.32 1.408.224.395.512.699.864.912.362.213.746.32 1.152.32.416 0 .805-.101 1.168-.304.362-.213.65-.512.864-.896.213-.395.32-.864.32-1.408Z" fill="#fff"/></svg>